<svg width="20" height="20" viewBox="0 0 20 20" fill="none" xmlns="http://www.w3.org/2000/svg">
<g id="g1854">
<path id="circle1840" d="M10 0C4.489 0 0 4.489 0 10C0 15.511 4.489 20 10 20C15.511 20 20 15.511 20 10C20 4.489 15.511 0 10 0ZM10 2C14.4301 2 18 5.56988 18 10C18 14.4301 14.4301 18 10 18C5.56988 18 2 14.4301 2 10C2 5.56988 5.56988 2 10 2Z" fill="black"/>
<path id="path1842" d="M13.707 6.29279C13.6141 6.19993 13.5039 6.12627 13.3825 6.07602C13.2612 6.02576 13.1312 5.99988 12.9999 5.99988C12.8685 5.99988 12.7385 6.02576 12.6172 6.07602C12.4958 6.12627 12.3856 6.19993 12.2927 6.29279L10.0002 8.58536L7.7076 6.29279C7.61475 6.19993 7.50451 6.12627 7.38318 6.07602C7.26185 6.02576 7.13182 5.99988 7.00049 5.99988C6.86917 5.99988 6.73914 6.02576 6.61781 6.07602C6.49648 6.12627 6.38624 6.19993 6.29338 6.29279C6.20053 6.38564 6.12686 6.49589 6.07661 6.61722C6.02635 6.73854 6.00049 6.86859 6.00049 6.99991C6.00049 7.13123 6.02635 7.26127 6.07661 7.3826C6.12686 7.50393 6.20053 7.61414 6.29338 7.707L8.58596 9.99957L6.29338 12.2921C6.20053 12.385 6.12686 12.4953 6.07661 12.6166C6.02635 12.7379 6.00049 12.8679 6.00049 12.9993C6.00049 13.1306 6.02635 13.2606 6.07661 13.382C6.12686 13.5033 6.20053 13.6135 6.29338 13.7064C6.38624 13.7992 6.49648 13.8729 6.61781 13.9232C6.73914 13.9734 6.86917 13.9993 7.00049 13.9993C7.13182 13.9993 7.26185 13.9734 7.38318 13.9232C7.50451 13.8729 7.61475 13.7992 7.7076 13.7064L10.0002 11.4138L12.2928 13.7064C12.4803 13.8939 12.7346 13.9993 12.9999 13.9993C13.2651 13.9993 13.5194 13.8939 13.707 13.7064C13.7998 13.6135 13.8735 13.5033 13.9237 13.382C13.974 13.2606 13.9999 13.1306 13.9999 12.9993C13.9999 12.8679 13.974 12.7379 13.9237 12.6166C13.8735 12.4953 13.7998 12.385 13.707 12.2921L11.4144 9.99957L13.707 7.707C13.7998 7.61414 13.8735 7.50393 13.9237 7.3826C13.974 7.26127 13.9999 7.13123 13.9999 6.99991C13.9999 6.86859 13.974 6.73854 13.9237 6.61722C13.8735 6.49589 13.7998 6.38564 13.707 6.29279Z" fill="black"/>
</g>
</svg>
