<svg width="26" height="26" viewBox="0 0 26 26" fill="none" xmlns="http://www.w3.org/2000/svg">
<g id="Layer 4">
<path id="Vector" d="M12.9937 26C10.4225 26 7.90908 25.2376 5.77125 23.8091C3.63341 22.3807 1.96716 20.3503 0.983224 17.9749C-0.000714958 15.5995 -0.258158 12.9856 0.24345 10.4638C0.745057 7.94208 1.98319 5.6257 3.80127 3.80762C5.61935 1.98953 7.93573 0.751405 10.4575 0.249797C12.9792 -0.251811 15.5931 0.0056327 17.9685 0.989572C20.344 1.97351 22.3743 3.63975 23.8028 5.77759C25.2312 7.91543 25.9937 10.4288 25.9937 13C25.9937 16.4478 24.624 19.7544 22.186 22.1924C19.7481 24.6304 16.4415 26 12.9937 26ZM12.9937 2.00001C10.8181 2.00001 8.69133 2.64514 6.88239 3.85384C5.07344 5.06254 3.66355 6.7805 2.83098 8.79049C1.99842 10.8005 1.78058 13.0122 2.20502 15.146C2.62946 17.2798 3.67711 19.2398 5.21548 20.7782C6.75386 22.3166 8.71387 23.3642 10.8477 23.7886C12.9815 24.2131 15.1932 23.9952 17.2032 23.1627C19.2132 22.3301 20.9311 20.9202 22.1398 19.1113C23.3485 17.3023 23.9937 15.1756 23.9937 13C23.9937 10.0826 22.8347 7.28473 20.7718 5.22183C18.7089 3.15893 15.911 2.00001 12.9937 2.00001Z" fill="#D97C37"/>
<path id="Vector_2" d="M12.9937 20C12.7284 20 12.4741 19.8946 12.2865 19.7071C12.099 19.5196 11.9937 19.2652 11.9937 19V7C11.9937 6.73478 12.099 6.48043 12.2865 6.29289C12.4741 6.10536 12.7284 6 12.9937 6C13.2589 6 13.5132 6.10536 13.7008 6.29289C13.8883 6.48043 13.9937 6.73478 13.9937 7V19C13.9937 19.2652 13.8883 19.5196 13.7008 19.7071C13.5132 19.8946 13.2589 20 12.9937 20Z" fill="#D97C37"/>
<path id="Vector_3" d="M18.9937 14H6.99365C6.72844 14 6.47408 13.8946 6.28655 13.7071C6.09901 13.5196 5.99365 13.2652 5.99365 13C5.99365 12.7348 6.09901 12.4804 6.28655 12.2929C6.47408 12.1054 6.72844 12 6.99365 12H18.9937C19.2589 12 19.5132 12.1054 19.7008 12.2929C19.8883 12.4804 19.9937 12.7348 19.9937 13C19.9937 13.2652 19.8883 13.5196 19.7008 13.7071C19.5132 13.8946 19.2589 14 18.9937 14Z" fill="#D97C37"/>
</g>
</svg>
